<svg width="92" height="33" viewBox="0 0 92 33" fill="none" xmlns="http://www.w3.org/2000/svg">
<path d="M2.03992 25V9.776H11.3019V11.272H3.73392V16.53H9.98192V18.004H3.73392V23.504H11.3019V25H2.03992ZM12.8141 14H14.6181L17.3021 18.312L19.9861 14H21.7901L18.2921 19.456L21.7681 25H19.9641L17.3021 20.71L14.6181 25H12.8141L16.2681 19.5L12.8141 14ZM23.8613 29.884V14H25.4893V14.792C26.604 14.1173 27.704 13.78 28.7893 13.78C30.1827 13.78 31.1947 14.2273 31.8253 15.122C32.456 16.002 32.7713 17.4613 32.7713 19.5C32.7713 21.5387 32.3973 23.0053 31.6493 23.9C30.916 24.78 29.6913 25.22 27.9753 25.22C27.0807 25.22 26.2593 25.1393 25.5113 24.978V29.884H23.8613ZM28.5473 15.254C28.1073 15.254 27.6307 15.3273 27.1173 15.474C26.6187 15.6207 26.2227 15.7673 25.9293 15.914L25.5113 16.134V23.548C26.5527 23.7093 27.3447 23.79 27.8873 23.79C29.0753 23.79 29.904 23.4527 30.3733 22.778C30.8573 22.1033 31.0993 21.0033 31.0993 19.478C31.0993 17.9527 30.8793 16.8673 30.4393 16.222C30.014 15.5767 29.3833 15.254 28.5473 15.254ZM35.4629 25V14H37.0909V15.496C38.3669 14.616 39.7089 14.0367 41.1169 13.758V15.43C40.5009 15.5473 39.8556 15.7307 39.1809 15.98C38.5209 16.2293 38.0149 16.4493 37.6629 16.64L37.1129 16.926V25H35.4629ZM50.3335 23.636L50.9715 23.57L51.0155 24.868C49.3435 25.1027 47.9135 25.22 46.7255 25.22C45.1415 25.22 44.0195 24.7653 43.3595 23.856C42.6995 22.932 42.3695 21.502 42.3695 19.566C42.3695 15.7087 43.9022 13.78 46.9675 13.78C48.4489 13.78 49.5562 14.198 50.2895 15.034C51.0229 15.8553 51.3895 17.1533 51.3895 18.928L51.3015 20.182H44.0415C44.0415 21.3993 44.2615 22.3013 44.7015 22.888C45.1415 23.4747 45.9042 23.768 46.9895 23.768C48.0895 23.768 49.2042 23.724 50.3335 23.636ZM49.7395 18.862C49.7395 17.5127 49.5195 16.5593 49.0795 16.002C48.6542 15.4447 47.9502 15.166 46.9675 15.166C45.9995 15.166 45.2662 15.4593 44.7675 16.046C44.2835 16.6327 44.0342 17.5713 44.0195 18.862H49.7395ZM57.415 15.254C55.8163 15.254 55.017 15.8113 55.017 16.926C55.017 17.4393 55.2003 17.806 55.567 18.026C55.9336 18.2313 56.7696 18.4513 58.075 18.686C59.3803 18.906 60.3043 19.2213 60.847 19.632C61.3896 20.0427 61.661 20.8127 61.661 21.942C61.661 23.0713 61.2943 23.9 60.561 24.428C59.8423 24.956 58.7863 25.22 57.393 25.22C56.4836 25.22 55.413 25.1173 54.181 24.912L53.521 24.802L53.609 23.372C55.281 23.6213 56.5423 23.746 57.393 23.746C58.2436 23.746 58.889 23.614 59.329 23.35C59.7836 23.0713 60.011 22.6167 60.011 21.986C60.011 21.3407 59.8203 20.908 59.439 20.688C59.0576 20.4533 58.2216 20.2333 56.931 20.028C55.6403 19.8227 54.7236 19.522 54.181 19.126C53.6383 18.73 53.367 17.9967 53.367 16.926C53.367 15.8553 53.741 15.0633 54.489 14.55C55.2516 14.0367 56.1976 13.78 57.327 13.78C58.2216 13.78 59.3436 13.8827 60.693 14.088L61.309 14.198L61.265 15.606C59.637 15.3713 58.3536 15.254 57.415 15.254ZM67.6415 15.254C66.0428 15.254 65.2435 15.8113 65.2435 16.926C65.2435 17.4393 65.4268 17.806 65.7935 18.026C66.1602 18.2313 66.9962 18.4513 68.3015 18.686C69.6068 18.906 70.5308 19.2213 71.0735 19.632C71.6162 20.0427 71.8875 20.8127 71.8875 21.942C71.8875 23.0713 71.5208 23.9 70.7875 24.428C70.0688 24.956 69.0128 25.22 67.6195 25.22C66.7102 25.22 65.6395 25.1173 64.4075 24.912L63.7475 24.802L63.8355 23.372C65.5075 23.6213 66.7688 23.746 67.6195 23.746C68.4702 23.746 69.1155 23.614 69.5555 23.35C70.0102 23.0713 70.2375 22.6167 70.2375 21.986C70.2375 21.3407 70.0468 20.908 69.6655 20.688C69.2842 20.4533 68.4482 20.2333 67.1575 20.028C65.8668 19.8227 64.9502 19.522 64.4075 19.126C63.8648 18.73 63.5935 17.9967 63.5935 16.926C63.5935 15.8553 63.9675 15.0633 64.7155 14.55C65.4782 14.0367 66.4242 13.78 67.5535 13.78C68.4482 13.78 69.5702 13.8827 70.9195 14.088L71.5355 14.198L71.4915 15.606C69.8635 15.3713 68.5802 15.254 67.6415 15.254Z" fill="white"/>
<path d="M79.38 24.11C79.22 24.11 79.0833 24.0533 78.97 23.94C78.8567 23.8267 78.8 23.6933 78.8 23.54C78.8 23.3867 78.8567 23.2533 78.97 23.14C79.0833 23.0267 79.22 22.97 79.38 22.97C79.5333 22.97 79.6667 23.0267 79.78 23.14C79.8933 23.2533 79.95 23.3867 79.95 23.54C79.95 23.6933 79.8933 23.8267 79.78 23.94C79.6667 24.0533 79.5333 24.11 79.38 24.11ZM83.94 25.74C83.6533 25.74 83.38 25.6867 83.12 25.58C82.8667 25.4733 82.6533 25.3133 82.48 25.1L82.88 24.56L82.94 24.48L83 24.52C83.0133 24.5733 83.03 24.6233 83.05 24.67C83.07 24.7233 83.1167 24.79 83.19 24.87C83.2833 24.9433 83.39 25.0033 83.51 25.05C83.6367 25.0967 83.7767 25.12 83.93 25.12C84.13 25.12 84.3067 25.0733 84.46 24.98C84.62 24.8933 84.7433 24.7533 84.83 24.56C84.9167 24.3733 84.96 24.1267 84.96 23.82V20.02H83.26V19.43H85.69V23.78C85.69 24.24 85.61 24.6133 85.45 24.9C85.29 25.1933 85.0767 25.4067 84.81 25.54C84.55 25.6733 84.26 25.74 83.94 25.74ZM85.27 18.47C85.13 18.47 85.01 18.42 84.91 18.32C84.81 18.22 84.76 18.1 84.76 17.96C84.76 17.8133 84.8067 17.69 84.9 17.59C85 17.49 85.1233 17.44 85.27 17.44C85.41 17.44 85.53 17.4933 85.63 17.6C85.7367 17.7 85.79 17.82 85.79 17.96C85.79 18.1 85.7367 18.22 85.63 18.32C85.53 18.42 85.41 18.47 85.27 18.47ZM89.51 24.1C89.2567 24.1 89.0133 24.0733 88.78 24.02C88.5533 23.9667 88.3367 23.8867 88.13 23.78C87.93 23.6733 87.7433 23.54 87.57 23.38L87.97 22.7L88.03 22.61L88.09 22.65C88.1033 22.7033 88.1167 22.76 88.13 22.82C88.15 22.8733 88.1967 22.94 88.27 23.02C88.41 23.16 88.5767 23.2767 88.77 23.37C88.97 23.4567 89.2233 23.5 89.53 23.5C89.7767 23.5 89.9833 23.47 90.15 23.41C90.3233 23.35 90.4567 23.2667 90.55 23.16C90.6433 23.0467 90.69 22.9167 90.69 22.77C90.69 22.67 90.67 22.5833 90.63 22.51C90.59 22.43 90.5233 22.3567 90.43 22.29C90.3433 22.2233 90.2267 22.1567 90.08 22.09C89.9333 22.0233 89.7533 21.9567 89.54 21.89C89.1933 21.79 88.89 21.6733 88.63 21.54C88.37 21.4067 88.17 21.2533 88.03 21.08C87.89 20.9 87.82 20.6967 87.82 20.47C87.82 20.2367 87.8833 20.0367 88.01 19.87C88.1367 19.6967 88.3233 19.5633 88.57 19.47C88.8233 19.37 89.1333 19.32 89.5 19.32C89.7133 19.32 89.9067 19.3367 90.08 19.37C90.2533 19.3967 90.4133 19.44 90.56 19.5C90.7067 19.56 90.84 19.6367 90.96 19.73C91.0867 19.8167 91.2067 19.92 91.32 20.04L90.91 20.54L90.84 20.62L90.79 20.57C90.7833 20.5167 90.7667 20.4667 90.74 20.42C90.72 20.3667 90.6733 20.3033 90.6 20.23C90.4467 20.11 90.2733 20.02 90.08 19.96C89.8867 19.8933 89.7 19.86 89.52 19.86C89.2533 19.86 89.0233 19.9067 88.83 20C88.6367 20.0933 88.54 20.2367 88.54 20.43C88.54 20.53 88.5733 20.63 88.64 20.73C88.7133 20.8233 88.8433 20.92 89.03 21.02C89.2167 21.1133 89.4833 21.21 89.83 21.31C90.21 21.43 90.5133 21.5533 90.74 21.68C90.9733 21.8 91.14 21.94 91.24 22.1C91.3467 22.26 91.4 22.45 91.4 22.67C91.4 22.9233 91.33 23.16 91.19 23.38C91.0567 23.6 90.85 23.7767 90.57 23.91C90.29 24.0367 89.9367 24.1 89.51 24.1Z" fill="#9A9A9A"/>
</svg>
