<svg width="131" height="35" viewBox="0 0 131 35" fill="none" xmlns="http://www.w3.org/2000/svg">
<g clip-path="url(#clip0_31_333)">
<path d="M15.8291 14.0397C14.0265 6.16001 10.2693 4.06235 9.31092 2.57951C8.91572 1.92629 8.56562 1.24729 8.26302 0.54718C8.2124 1.24718 8.11938 1.68818 7.5189 2.21901C6.31323 3.28418 1.19267 7.41885 0.761734 16.3718C0.360237 24.7193 6.95492 29.8667 7.82621 30.3987C8.49615 30.7253 9.3121 30.4057 9.71006 30.1058C12.8891 27.944 17.2325 22.1807 15.8326 14.0397" fill="#10AA50"/>
<path d="M8.53628 25.9537C8.37027 28.0198 8.25135 29.2203 7.82983 30.401C7.82983 30.401 8.10653 32.368 8.3008 34.4517H8.98841C9.15242 32.9844 9.40286 31.5278 9.73842 30.0895C8.8483 29.6555 8.57043 27.7667 8.53628 25.9537Z" fill="#B8C4C2"/>
<path d="M9.73724 30.0907C8.8377 29.6788 8.57749 27.7503 8.53746 25.9537C8.75992 22.9899 8.82476 20.0166 8.73173 17.0462C8.68463 15.4875 8.7541 2.60982 8.34436 0.724487C8.62464 1.36303 8.94758 1.98235 9.31102 2.57832C10.2694 4.06232 14.0277 6.15999 15.8292 14.0397C17.2326 22.1667 12.9127 27.9148 9.73724 30.0907Z" fill="#12924F"/>
<path d="M128.302 27.2417C127.917 27.2416 127.541 27.1288 127.22 26.9172C126.9 26.7057 126.649 26.405 126.501 26.0529C126.352 25.7008 126.312 25.313 126.385 24.9383C126.458 24.5636 126.642 24.2187 126.912 23.947C127.182 23.6753 127.528 23.4889 127.905 23.4112C128.282 23.3335 128.674 23.368 129.031 23.5104C129.389 23.6528 129.696 23.8967 129.914 24.2114C130.131 24.5262 130.25 24.8977 130.256 25.2793C130.263 25.5367 130.217 25.7927 130.122 26.0322C130.027 26.2716 129.883 26.4895 129.701 26.6728C129.519 26.856 129.301 27.0009 129.06 27.0987C128.82 27.1964 128.562 27.2451 128.302 27.2417ZM128.302 23.5457C127.951 23.5434 127.606 23.6446 127.312 23.8366C127.018 24.0285 126.789 24.3026 126.652 24.624C126.516 24.9454 126.478 25.2997 126.545 25.6421C126.612 25.9845 126.78 26.2995 127.028 26.5472C127.275 26.7949 127.592 26.9642 127.937 27.0337C128.282 27.1031 128.639 27.0696 128.965 26.9373C129.291 26.805 129.569 26.58 129.766 26.2907C129.962 26.0013 130.068 25.6607 130.069 25.312C130.073 25.0802 130.031 24.8498 129.944 24.6345C129.857 24.4192 129.727 24.2234 129.563 24.0587C129.398 23.894 129.201 23.7637 128.985 23.6756C128.769 23.5875 128.536 23.5433 128.302 23.5457ZM128.773 26.53L128.27 25.4532H127.863V26.53H127.568V24.08H128.297C128.839 24.08 129.065 24.3133 129.065 24.7648C129.065 25.1242 128.895 25.3482 128.577 25.417L129.097 26.5265L128.773 26.53ZM127.875 25.2H128.302C128.649 25.2 128.781 25.0833 128.781 24.7707C128.781 24.458 128.655 24.3518 128.265 24.3518H127.875V25.2Z" fill="white"/>
<path d="M99.2311 25.4777C99.7597 25.8965 100.816 26.0692 101.747 26.0692C102.954 26.0692 104.137 25.8475 105.294 24.8127C106.471 23.7522 107.281 22.1293 107.281 19.5382C107.281 17.0485 106.325 15.0278 104.363 13.8448C103.257 13.1553 101.823 12.8835 100.187 12.8835C99.7161 12.8835 99.2311 12.908 98.9555 13.0317C98.8426 13.12 98.7626 13.2432 98.7283 13.3817C98.6789 13.825 98.6789 17.2013 98.6789 19.1975C98.6789 21.2438 98.6789 24.0975 98.7283 24.4475C98.7542 24.7438 98.9049 25.2642 99.2311 25.4823M94.2106 11.7752C94.638 11.7752 96.2628 11.8487 97.0187 11.8487C98.4316 11.8487 99.4077 11.7752 102.049 11.7752C104.262 11.7752 106.125 12.3667 107.456 13.4995C109.067 14.8808 109.929 16.8023 109.929 19.1438C109.929 22.4712 108.398 24.3938 106.86 25.4777C105.329 26.6117 103.338 27.2522 100.501 27.2522C98.992 27.2522 96.4006 27.2032 94.2377 27.1787H94.1929C94.0917 26.9815 94.3778 26.2127 94.5544 26.1928C95.1431 26.1275 95.2985 26.1042 95.5693 25.9933C96.0261 25.8078 96.1333 25.5768 96.1839 24.7637C96.2593 23.2353 96.2345 21.4118 96.2345 19.341C96.2345 17.8628 96.2593 14.9788 96.2098 14.0665C96.1333 13.3035 95.8083 13.1063 95.1502 12.9582C94.6834 12.8599 94.2118 12.7859 93.7373 12.7365C93.6878 12.5883 94.074 11.9198 94.2 11.7752" fill="white"/>
<path d="M116.163 13.0258C116.063 13.0503 115.937 13.2977 115.937 13.4202C115.911 14.308 115.887 16.6238 115.887 18.2257C115.893 18.2563 115.908 18.2844 115.931 18.3064C115.953 18.3284 115.982 18.3433 116.013 18.3493C116.339 18.3738 117.144 18.3995 117.824 18.3995C118.78 18.3995 119.333 18.2758 119.634 18.1277C120.44 17.7333 120.812 16.87 120.812 15.9343C120.812 13.79 119.302 12.9768 117.064 12.9768C116.762 12.973 116.459 12.9894 116.159 13.0258M121.869 22.8842C121.869 20.7153 120.258 19.4833 117.315 19.4833C117.19 19.4833 116.255 19.4588 116.033 19.5078C115.957 19.5323 115.882 19.5813 115.882 19.6315C115.882 21.1843 115.856 23.6728 115.933 24.6587C115.983 25.0775 116.286 25.669 116.661 25.8417C117.064 26.0633 117.97 26.1123 118.598 26.1123C120.334 26.1123 121.869 25.1522 121.869 22.8842ZM111.619 11.8183C111.846 11.8183 112.515 11.8918 114.225 11.8918C115.835 11.8918 117.143 11.8428 118.7 11.8428C120.636 11.8428 123.302 12.5335 123.302 15.3918C123.302 16.7918 122.296 17.9305 120.988 18.473C120.913 18.4975 120.913 18.5465 120.988 18.571C122.85 19.0377 124.484 20.1728 124.484 22.3417C124.484 24.4615 123.151 25.7927 121.214 26.6303C120.037 27.1483 118.574 27.3198 117.094 27.3198C115.962 27.3198 112.929 27.2032 111.243 27.2218C111.066 27.1483 111.404 26.3585 111.555 26.236C111.941 26.2242 112.325 26.1647 112.696 26.0587C113.299 25.9117 113.371 25.7192 113.446 24.8313C113.497 24.0672 113.497 21.3313 113.497 19.3842C113.497 16.7218 113.522 14.924 113.497 14.0362C113.472 13.3467 113.22 13.1238 112.742 13.0013C112.365 12.9267 111.736 12.8532 111.234 12.7797C111.108 12.656 111.495 11.9163 111.62 11.8183" fill="white"/>
<path d="M21.3995 27.2417C21.3347 27.0839 21.3085 26.9132 21.323 26.7435C21.3173 26.6278 21.3438 26.5128 21.3995 26.411C21.7249 26.3645 22.0472 26.2995 22.365 26.2162C22.8101 26.1065 22.9772 25.8662 23.0031 25.3038C23.0761 23.975 23.0809 21.4818 23.055 19.7295V19.6782C23.055 19.4892 23.055 19.2325 22.8195 19.0517C22.4056 18.7944 21.9562 18.5979 21.4855 18.4683C21.2747 18.4065 21.1581 18.2968 21.164 18.1685C21.1699 18.0402 21.303 17.8885 21.5773 17.8348C22.3061 17.7613 24.2159 17.3098 24.9659 16.9668C25.0431 17.0666 25.0789 17.1918 25.066 17.3168C25.066 17.3938 25.0542 17.4755 25.046 17.5595C25.0248 17.8068 25.0012 18.088 25.0012 18.368C25.0058 18.402 25.0199 18.4341 25.0419 18.4606C25.0639 18.4871 25.093 18.507 25.1258 18.518C25.1586 18.529 25.1938 18.5308 25.2276 18.523C25.2613 18.5153 25.2922 18.4984 25.3168 18.4742C26.745 17.3647 28.0248 16.9692 28.6806 16.9692C29.7603 16.9692 30.601 17.4802 31.2521 18.5325C31.267 18.5579 31.2883 18.5791 31.3139 18.594C31.3394 18.6089 31.3684 18.6171 31.3981 18.6177C31.4251 18.6174 31.4516 18.6107 31.4753 18.5981C31.4991 18.5855 31.5195 18.5674 31.5347 18.5453C32.8475 17.5583 34.1485 16.9692 35.0198 16.9692C37.0779 16.9692 38.3083 18.4963 38.3083 21.0525C38.3083 21.7875 38.3013 22.7197 38.2942 23.5888C38.2883 24.3518 38.2824 25.067 38.2824 25.5617C38.2824 25.6783 38.4449 26.0143 38.6886 26.0808C38.99 26.2267 39.4245 26.3013 39.9744 26.3947H39.9956C40.0368 26.5417 39.9496 27.1122 39.866 27.2288C39.7295 27.2288 39.5411 27.2172 39.3056 27.2055C38.8782 27.1845 38.2918 27.1553 37.6101 27.1553C36.242 27.1553 35.5273 27.181 34.8444 27.2253C34.7926 27.0562 34.7749 26.5102 34.8373 26.3958C35.1201 26.352 35.4 26.2916 35.6756 26.215C36.1113 26.0727 36.2373 25.8767 36.2643 25.3038C36.2749 24.8967 36.3538 21.3092 36.2137 20.4575C36.0842 19.5743 35.4131 18.5407 33.9448 18.5407C33.3997 18.5407 32.5202 18.7658 31.6818 19.3958C31.6298 19.4542 31.6006 19.5291 31.5994 19.607V19.6245C31.6983 20.0842 31.6983 20.6208 31.6983 21.4317C31.6983 21.8983 31.6983 22.3848 31.6924 22.8713C31.6866 23.8607 31.6819 24.794 31.6983 25.4998C31.6983 25.9805 31.9915 26.096 32.2282 26.1882C32.3565 26.2162 32.4578 26.2407 32.5602 26.264C32.7568 26.3118 32.9617 26.3608 33.2666 26.4087C33.3118 26.6136 33.3078 26.8262 33.2549 27.0293C33.2424 27.1056 33.2122 27.1779 33.1666 27.2405C32.406 27.2148 31.6253 27.1927 30.4986 27.1927C30.1571 27.1927 29.6002 27.2067 29.108 27.2195C28.7089 27.23 28.3321 27.2405 28.1178 27.2417C28.0599 27.1062 28.0341 26.9593 28.0425 26.8123C28.0304 26.6739 28.0578 26.5349 28.1214 26.411L28.424 26.3562C28.6877 26.3095 28.9161 26.2698 29.1304 26.2162C29.5025 26.0995 29.6426 25.8988 29.6697 25.4287C29.7427 24.332 29.7992 21.1715 29.6426 20.3805C29.3765 19.1112 28.6477 18.4672 27.475 18.4672C26.7885 18.4672 25.9208 18.795 25.212 19.3212C25.1438 19.3869 25.0901 19.466 25.0542 19.5533C25.0184 19.6407 25.0011 19.7344 25.0036 19.8287C25.0036 20.2055 25.0036 20.6535 25.0036 21.1342C25.0036 22.7208 24.993 24.696 25.0318 25.55C25.0554 25.8137 25.1496 26.1263 25.6476 26.2407C25.7571 26.2722 25.9455 26.3025 26.1645 26.3387C26.2905 26.3597 26.4282 26.3818 26.5707 26.4075C26.616 26.6869 26.593 26.9729 26.5036 27.2417C26.2846 27.2417 26.015 27.2277 25.7065 27.2148C25.2355 27.1938 24.6468 27.1682 23.9816 27.1682C23.1951 27.1682 22.6476 27.1938 22.2084 27.2148C21.9129 27.2288 21.6574 27.2405 21.4019 27.2417" fill="white"/>
<path d="M46.649 18.0238C46.2241 18.0151 45.8061 18.1316 45.4481 18.3587C44.5744 18.8848 44.1294 19.936 44.1294 21.4807C44.1294 24.3717 45.5905 26.3912 47.6828 26.3912C48.2438 26.4088 48.791 26.2168 49.2158 25.8533C49.8586 25.3342 50.2001 24.2725 50.2001 22.7862C50.2001 19.9383 48.7719 18.0238 46.6467 18.0238M47.0493 27.4633C43.2699 27.4633 41.9241 24.7158 41.9241 22.1457C41.9241 20.3502 42.6647 18.9467 44.1258 17.9725C45.1492 17.3447 46.324 17.0006 47.5274 16.9762C50.4109 16.9762 52.4254 19.0307 52.4254 21.9742C52.4254 23.9738 51.6212 25.5535 50.0988 26.5405C49.3677 26.9838 48.0972 27.4633 47.0493 27.4633Z" fill="white"/>
<path d="M85.1269 18.0238C84.7011 18.0143 84.2821 18.1309 83.9236 18.3587C83.0499 18.8848 82.6049 19.936 82.6049 21.4807C82.6049 24.3717 84.066 26.3912 86.1583 26.3912C86.7209 26.41 87.27 26.2179 87.696 25.8533C88.3389 25.3342 88.6791 24.2725 88.6791 22.7862C88.6791 19.9383 87.2521 18.0238 85.1269 18.0238ZM85.5296 27.4633C81.7501 27.4633 80.4043 24.7158 80.4043 22.1468C80.4043 20.349 81.1449 18.9467 82.6072 17.9725C83.63 17.3443 84.8045 17.0002 86.0076 16.9762C88.8911 16.9762 90.9056 19.0318 90.9056 21.973C90.9056 23.975 90.1015 25.5535 88.5791 26.5393C87.8479 26.9838 86.5775 27.4633 85.5296 27.4633Z" fill="white"/>
<path d="M72.4013 17.9258C71.2369 17.9258 70.4833 18.837 70.4833 20.2475C70.4833 21.658 71.1321 23.3345 72.9559 23.3345C73.2691 23.3345 73.8366 23.1968 74.118 22.89C74.5419 22.5038 74.8245 21.7058 74.8245 20.8635C74.8245 19.0237 73.9202 17.9258 72.4072 17.9258M72.2565 27.6605C71.9275 27.6569 71.6032 27.7373 71.3146 27.8938C70.3927 28.4772 69.9653 29.0605 69.9653 29.7383C69.9653 30.373 70.2137 30.8782 70.7483 31.3262C71.3958 31.8698 72.2695 32.1347 73.4174 32.1347C75.6769 32.1347 76.6895 30.9307 76.6895 29.7383C76.6895 28.9077 76.2691 28.3512 75.4037 28.0362C74.7373 27.7947 73.6235 27.6617 72.2601 27.6617M72.4108 33.3783C71.0544 33.3783 70.0771 33.0948 69.2424 32.4578C68.4299 31.8372 68.0649 30.9155 68.0649 30.2785C68.0737 29.868 68.2318 29.4744 68.51 29.1702C68.7455 28.9042 69.293 28.406 70.5587 27.5438C70.5783 27.5356 70.595 27.5217 70.6068 27.5041C70.6185 27.4865 70.6247 27.4658 70.6246 27.4447C70.625 27.4211 70.6173 27.3981 70.6028 27.3794C70.5882 27.3608 70.5677 27.3476 70.5446 27.342C69.5026 26.9465 69.1882 26.292 69.0928 25.942C69.0928 25.9292 69.0928 25.9093 69.0822 25.8872C69.0528 25.7495 69.0245 25.6188 69.2141 25.4847C69.3601 25.382 69.5932 25.2443 69.8428 25.0985C70.1952 24.9052 70.5332 24.6873 70.8542 24.4463C70.8715 24.4279 70.8843 24.4059 70.8916 24.3819C70.8989 24.3578 70.9006 24.3325 70.8965 24.3077C70.8924 24.2829 70.8827 24.2594 70.868 24.2389C70.8533 24.2185 70.8341 24.2016 70.8118 24.1897C69.2694 23.6763 68.4923 22.5412 68.4923 20.8063C68.4876 20.2654 68.6146 19.7312 68.8626 19.2493C69.1107 18.7673 69.4723 18.3517 69.917 18.0378C70.5375 17.5513 72.0952 16.9668 73.1043 16.9668H73.1631C74.2004 16.9913 74.7856 17.2072 75.5957 17.5035C76.0565 17.6686 76.5447 17.7454 77.0345 17.7298C77.8928 17.7298 78.2684 17.4603 78.591 17.1465C78.6433 17.2879 78.6712 17.4369 78.6734 17.5875C78.6931 17.9462 78.5948 18.3016 78.3932 18.6002C78.2178 18.8417 77.8045 19.0167 77.4265 19.0167C77.3877 19.0167 77.35 19.0167 77.3088 19.0108C77.1099 18.997 76.9128 18.9645 76.7201 18.914L76.6235 18.9478C76.5929 18.9922 76.6129 19.0412 76.6377 19.1042C76.6437 19.1165 76.6484 19.1294 76.6518 19.1427C76.7207 19.454 76.7675 19.7698 76.7919 20.0877C76.7919 21.9018 76.0702 22.6917 75.2895 23.2773C74.5348 23.8384 73.6385 24.1824 72.6992 24.2713C72.6792 24.2713 72.5815 24.2795 72.3978 24.2958C72.2801 24.3063 72.127 24.3203 72.1046 24.3203H72.0823C71.9127 24.367 71.47 24.5758 71.47 24.9643C71.47 25.2863 71.6702 25.6865 72.6274 25.7588L73.2467 25.802C74.5089 25.8895 76.0855 25.998 76.8272 26.2465C77.3193 26.4179 77.7443 26.7388 78.0417 27.1633C78.3391 27.5879 78.4938 28.0946 78.4839 28.6113C78.4839 30.2388 77.3159 31.7695 75.3602 32.7052C74.4379 33.1417 73.4281 33.3662 72.4061 33.362" fill="white"/>
<path d="M66.6251 26.3737C66.0717 26.3002 65.6679 26.2255 65.191 26.0038C65.0974 25.9078 65.0358 25.7856 65.0144 25.6538C64.9638 24.8897 64.9638 22.6718 64.9638 21.2205C64.9638 20.0363 64.7636 19.0038 64.2573 18.263C63.6533 17.4242 62.7985 16.9318 61.6918 16.9318C60.711 16.9318 59.4029 17.5968 58.322 18.5092C58.2961 18.5337 58.1301 18.69 58.1336 18.4473C58.1371 18.2047 58.1748 17.7123 58.1984 17.3973C58.2088 17.3136 58.1994 17.2287 58.1707 17.1493C58.1421 17.0699 58.0951 16.9982 58.0335 16.94C57.3271 17.29 55.3455 17.7567 54.612 17.8278C54.0774 17.9305 53.942 18.4403 54.5131 18.6165H54.5213C54.9784 18.7414 55.4147 18.9316 55.8165 19.1812C56.0425 19.3538 56.0178 19.6 56.0178 19.7972C56.0425 21.448 56.0425 23.9867 55.9672 25.3668C55.9424 25.9093 55.7906 26.1065 55.3879 26.2057L55.4256 26.1928C55.1189 26.269 54.8079 26.3266 54.4942 26.3655C54.3682 26.488 54.3682 27.2032 54.4942 27.3513C54.7462 27.3513 56.0249 27.2778 57.0845 27.2778C58.5422 27.2778 59.2969 27.3513 59.6748 27.3513C59.8267 27.1787 59.8762 26.5137 59.7761 26.3655C59.4278 26.3499 59.0819 26.3003 58.7435 26.2173C58.342 26.1193 58.2408 25.921 58.216 25.4788C58.1666 24.3192 58.1666 21.8552 58.1666 20.1787C58.1666 19.712 58.2914 19.4892 58.4421 19.362C58.9448 18.9187 59.7761 18.6235 60.5049 18.6235C61.2114 18.6235 61.6823 18.8452 62.0356 19.1403C62.447 19.496 62.7049 19.9947 62.7561 20.5333C62.8562 21.4667 62.8303 23.3438 62.8303 24.9667C62.8303 25.8545 62.7561 26.0773 62.4288 26.1753C62.2781 26.2488 61.8754 26.3235 61.3974 26.3725C61.2467 26.5207 61.2961 27.2102 61.3974 27.3583C62.0509 27.3583 62.8103 27.2848 63.9123 27.2848C65.2958 27.2848 66.1765 27.3583 66.5286 27.3583C66.6793 27.1857 66.7299 26.5417 66.6298 26.3725" fill="white"/>
</g>
<defs>
<clipPath id="clip0_31_333">
<rect width="131" height="35" fill="white"/>
</clipPath>
</defs>
</svg>
