<svg width="63" height="39" viewBox="0 0 63 39" fill="none" xmlns="http://www.w3.org/2000/svg">
<path d="M14.8337 9.91224H26.6908V10.8566H15.9206V17.9643H26.0486V18.9086H15.9206V26.7121H26.8143V27.6565H14.8337V9.91224ZM27.753 9.91224H29.0128L34.5955 17.7157L40.3017 9.91224L48.0631 0L35.3119 18.5359L41.8827 27.6565H40.5735L34.5955 19.356L28.5929 27.6565H27.3084L33.9286 18.5359L27.753 9.91224ZM42.352 10.8566V9.91224H55.8642V10.8566H49.6392V27.6565H48.5523V10.8566H42.352Z" fill="white"/>
<path d="M0 9.91223H1.35862L20.0932 38.005L12.3511 27.6565L1.1363 11.2542L1.0869 27.6565H0V9.91223Z" fill="white"/>
<path d="M55.7546 26.4271C55.9793 26.4271 56.1432 26.2547 56.1432 26.0319C56.1432 25.8091 55.9793 25.6367 55.7546 25.6367C55.5325 25.6367 55.366 25.8091 55.366 26.0319C55.366 26.2547 55.5325 26.4271 55.7546 26.4271ZM56.8226 25.3873C56.8226 26.0452 57.2958 26.4749 57.9858 26.4749C58.7207 26.4749 59.1648 26.0319 59.1648 25.2627V22.5544H58.5726V25.26C58.5726 25.6871 58.3585 25.9152 57.9805 25.9152C57.6421 25.9152 57.4121 25.703 57.4042 25.3873H56.8226ZM59.9394 25.3529C59.9817 26.0372 60.55 26.4749 61.396 26.4749C62.3001 26.4749 62.8658 26.016 62.8658 25.2839C62.8658 24.7083 62.5433 24.39 61.7608 24.207L61.3405 24.1035C60.8435 23.9868 60.6426 23.8303 60.6426 23.5571C60.6426 23.2123 60.9545 22.9868 61.4224 22.9868C61.8665 22.9868 62.1732 23.207 62.2287 23.5598H62.805C62.7707 22.9152 62.2049 22.4616 61.4304 22.4616C60.5976 22.4616 60.0425 22.9152 60.0425 23.5969C60.0425 24.1592 60.3571 24.4934 61.047 24.6552L61.5387 24.7746C62.0437 24.894 62.2657 25.069 62.2657 25.3608C62.2657 25.7003 61.9168 25.947 61.4409 25.947C60.9307 25.947 60.5765 25.7163 60.5262 25.3529H59.9394Z" fill="white"/>
</svg>
