<svg width="76" height="35" viewBox="0 0 76 35" fill="none" xmlns="http://www.w3.org/2000/svg">
<g filter="url(#filter0_d_31_355)">
<path fill-rule="evenodd" clip-rule="evenodd" d="M18.5933 13.9715C18.5933 13.6876 18.4442 13.4268 18.2001 13.2857L11.6893 9.52546C11.5793 9.46065 11.4562 9.42671 11.3314 9.42208H11.2641C11.1393 9.42671 11.0161 9.46065 10.9044 9.52546L4.39382 13.2857C4.15126 13.4276 4 13.6884 4 13.9723L4.0143 24.1003C4.0143 24.2407 4.08654 24.3719 4.20952 24.4413C4.32942 24.5154 4.48006 24.5154 4.59996 24.4413L8.47057 22.2163C8.71498 22.0704 8.86408 21.8124 8.86408 21.5313V16.7998C8.86408 16.5174 9.01319 16.2566 9.25683 16.1162L10.9047 15.1636C11.027 15.0926 11.1614 15.0574 11.2982 15.0574C11.4329 15.0574 11.5703 15.0923 11.6893 15.1634L13.3363 16.1158C13.5801 16.2562 13.7299 16.5169 13.7299 16.7993V21.5305C13.7299 21.8113 13.881 22.0705 14.1241 22.2156L17.9923 24.439C18.1137 24.5115 18.2648 24.5115 18.3858 24.439C18.5051 24.3695 18.5807 24.2384 18.5807 24.098L18.5933 13.9715ZM49.3165 19.2447C49.3165 19.3153 49.2792 19.3805 49.2181 19.4154L46.9819 20.7093C46.9211 20.7444 46.8461 20.7444 46.7856 20.7093L44.549 19.4154C44.4875 19.3804 44.4506 19.3151 44.4506 19.2447V16.6532C44.4506 16.5825 44.4875 16.5174 44.5474 16.4819L46.7825 15.1858C46.844 15.1503 46.9193 15.1503 46.9808 15.1858L49.2174 16.4819C49.2789 16.5174 49.3158 16.5825 49.3158 16.6532L49.3165 19.2447ZM49.9206 0.0499587C49.7986 -0.0182404 49.6501 -0.0163888 49.5296 0.0541247C49.4097 0.125101 49.3356 0.25471 49.3356 0.39512V10.4244C49.3356 10.5231 49.2833 10.6142 49.1982 10.6635C49.1136 10.7129 49.0083 10.7129 48.923 10.6635L47.2921 9.72064C47.0492 9.57961 46.7501 9.57961 46.5063 9.72064L39.9933 13.4937C39.7499 13.6341 39.5997 13.8948 39.5997 14.1756V21.7238C39.5997 22.0062 39.7499 22.2654 39.9933 22.4074L46.5063 26.183C46.7494 26.3234 47.0489 26.3234 47.2928 26.183L53.8058 22.4058C54.0487 22.2639 54.1994 22.0046 54.1994 21.7223V2.91046C54.1994 2.62409 54.0441 2.3607 53.7951 2.22076L49.9206 0.0499587ZM71.6091 16.585C71.851 16.444 72 16.1835 72 15.9027V14.0733C72 13.7919 71.8509 13.5322 71.6085 13.3906L65.137 9.61958C64.8926 9.47762 64.5928 9.47762 64.3484 9.61958L57.8369 13.3921C57.5925 13.5341 57.4434 13.7933 57.4434 14.0757V21.6208C57.4434 21.9047 57.5956 22.167 57.84 22.3074L64.31 26.0089C64.5482 26.1463 64.8403 26.1478 65.0816 26.0136L68.9953 23.8303C69.1183 23.7608 69.1967 23.6297 69.1967 23.4877C69.1967 23.3458 69.1213 23.2131 68.9984 23.1437L62.4469 19.3696C62.3239 19.3001 62.2486 19.169 62.2486 19.0286V16.6617C62.2486 16.5203 62.3224 16.3901 62.4454 16.3197L64.4837 15.1394C64.6051 15.0684 64.7542 15.0684 64.8757 15.1394L66.9155 16.3197C67.0369 16.3892 67.1122 16.5203 67.1122 16.6607V18.5216C67.1122 18.662 67.1876 18.7931 67.309 18.8641C67.4304 18.9335 67.5811 18.9335 67.7025 18.8626L71.6091 16.585Z" fill="white"/>
<path fill-rule="evenodd" clip-rule="evenodd" d="M64.6473 16.232C64.6935 16.2047 64.7513 16.2047 64.798 16.232L66.0477 16.9556C66.0944 16.9828 66.123 17.0328 66.123 17.0868V18.5356C66.123 18.5896 66.0944 18.6396 66.0477 18.6668L64.798 19.3904C64.7513 19.4177 64.6935 19.4177 64.6473 19.3904L63.3984 18.6668C63.3507 18.6396 63.3215 18.5896 63.3215 18.5356V17.0868C63.3215 17.0328 63.3492 16.9828 63.3969 16.9556L64.6473 16.232Z" fill="#689F63"/>
<mask id="mask0_31_355" style="mask-type:luminance" maskUnits="userSpaceOnUse" x="21" y="9" width="16" height="18">
<path d="M28.7061 9.65729L22.23 13.4093C21.9874 13.5497 21.8386 13.8089 21.8386 14.0891V21.5984C21.8386 21.8788 21.9874 22.1379 22.23 22.2783L28.7066 26.0332C28.9487 26.1732 29.2472 26.1732 29.489 26.0332L35.9645 22.2783C36.2058 22.1379 36.3549 21.8786 36.3549 21.5984V14.0891C36.3549 13.8089 36.2058 13.5497 35.963 13.4093L29.4884 9.65729C29.3669 9.58739 29.2317 9.55237 29.0964 9.55237C28.9611 9.55237 28.8258 9.58739 28.7044 9.65729" fill="white"/>
</mask>
<g mask="url(#mask0_31_355)">
<path d="M42.8993 12.7722L24.6507 3.79373L15.2939 22.9533L33.5421 31.9323L42.8993 12.7722Z" fill="url(#paint0_linear_31_355)"/>
</g>
<mask id="mask1_31_355" style="mask-type:luminance" maskUnits="userSpaceOnUse" x="21" y="9" width="16" height="18">
<path d="M21.999 22.0752C22.061 22.1559 22.1384 22.2258 22.2296 22.2783L27.7849 25.4992L28.7103 26.0331C28.8487 26.1133 29.0064 26.1473 29.1613 26.1357C29.213 26.1315 29.2646 26.1218 29.3151 26.1074L36.1453 13.5539C36.0931 13.4968 36.0319 13.449 35.9633 13.4089L31.7229 10.9509L29.4814 9.65636C29.4177 9.61933 29.3487 9.5931 29.2785 9.57458L21.999 22.0752Z" fill="white"/>
</mask>
<g mask="url(#mask1_31_355)">
<path d="M14.109 15.4278L26.9944 32.9332L44.0355 20.2954L31.1494 2.7905L14.109 15.4278Z" fill="url(#paint1_linear_31_355)"/>
</g>
<mask id="mask2_31_355" style="mask-type:luminance" maskUnits="userSpaceOnUse" x="22" y="9" width="15" height="18">
<path d="M29.019 9.55667C28.9103 9.56747 28.8041 9.60142 28.7062 9.65727L22.2485 13.3985L29.2119 26.1295C29.3088 26.1156 29.4041 26.0832 29.4902 26.0332L35.9663 22.2783C36.1661 22.1619 36.3029 21.965 36.3444 21.7419L29.2458 9.56948C29.1935 9.55914 29.1412 9.55374 29.0874 9.55374C29.0659 9.55374 29.0444 9.55482 29.0229 9.55683" fill="white"/>
</mask>
<g mask="url(#mask2_31_355)">
<path d="M22.248 9.55374V26.1298H36.3413V9.55374H22.248Z" fill="url(#paint2_linear_31_355)"/>
</g>
</g>
<defs>
<filter id="filter0_d_31_355" x="0" y="0" width="76" height="34.2883" filterUnits="userSpaceOnUse" color-interpolation-filters="sRGB">
<feFlood flood-opacity="0" result="BackgroundImageFix"/>
<feColorMatrix in="SourceAlpha" type="matrix" values="0 0 0 0 0 0 0 0 0 0 0 0 0 0 0 0 0 0 127 0" result="hardAlpha"/>
<feOffset dy="4"/>
<feGaussianBlur stdDeviation="2"/>
<feComposite in2="hardAlpha" operator="out"/>
<feColorMatrix type="matrix" values="0 0 0 0 0 0 0 0 0 0 0 0 0 0 0 0 0 0 0.25 0"/>
<feBlend mode="normal" in2="BackgroundImageFix" result="effect1_dropShadow_31_355"/>
<feBlend mode="normal" in="SourceGraphic" in2="effect1_dropShadow_31_355" result="shape"/>
</filter>
<linearGradient id="paint0_linear_31_355" x1="33.7695" y1="8.26887" x2="24.3565" y2="27.3992" gradientUnits="userSpaceOnUse">
<stop offset="0.3" stop-color="#3E863D"/>
<stop offset="0.5" stop-color="#55934F"/>
<stop offset="0.8" stop-color="#5AAD45"/>
</linearGradient>
<linearGradient id="paint1_linear_31_355" x1="20.6289" y1="24.2809" x2="37.7159" y2="11.703" gradientUnits="userSpaceOnUse">
<stop offset="0.57" stop-color="#3E863D"/>
<stop offset="0.72" stop-color="#619857"/>
<stop offset="1" stop-color="#76AC64"/>
</linearGradient>
<linearGradient id="paint2_linear_31_355" x1="22.2528" y1="17.8422" x2="36.344" y2="17.8422" gradientUnits="userSpaceOnUse">
<stop offset="0.16" stop-color="#6BBF47"/>
<stop offset="0.38" stop-color="#79B461"/>
<stop offset="0.47" stop-color="#75AC64"/>
<stop offset="0.7" stop-color="#659E5A"/>
<stop offset="0.9" stop-color="#3E863D"/>
</linearGradient>
</defs>
</svg>
