<svg width="100" height="32" viewBox="0 0 100 32" fill="none" xmlns="http://www.w3.org/2000/svg">
<path d="M16 18.474C17.3807 18.474 18.5 17.3547 18.5 15.974C18.5 14.5933 17.3807 13.474 16 13.474C14.6193 13.474 13.5 14.5933 13.5 15.974C13.5 17.3547 14.6193 18.474 16 18.474Z" fill="#007ACC"/>
<path d="M16 21.706C12.9951 21.7787 9.9978 21.3736 7.12 20.506C5.79062 20.0846 4.55073 19.4207 3.463 18.548C3.04793 18.2498 2.70227 17.8654 2.44974 17.4211C2.19721 16.9768 2.04379 16.4832 2 15.974C2 14.321 3.816 12.701 6.858 11.641C9.81273 10.7017 12.8999 10.2465 16 10.293C19.0587 10.2503 22.1045 10.6972 25.022 11.617C26.3023 12.0252 27.5001 12.6569 28.56 13.483C28.968 13.7672 29.3084 14.1377 29.5573 14.5682C29.8061 14.9987 29.9573 15.4786 30 15.974C30 17.692 27.97 19.433 24.7 20.515C21.8779 21.3544 18.9438 21.756 16 21.706ZM16 11.489C13.0341 11.4493 10.0808 11.8821 7.251 12.771C4.451 13.748 3.196 15.084 3.196 15.971C3.196 16.899 4.545 18.358 7.507 19.371C10.2601 20.1968 13.1266 20.5813 16 20.51C18.8164 20.5604 21.6239 20.1793 24.325 19.38C27.4 18.361 28.8 16.9 28.8 15.974C28.7495 15.6562 28.6337 15.3524 28.4599 15.0816C28.2861 14.8109 28.058 14.5791 27.79 14.401C26.8418 13.6681 25.7717 13.1082 24.629 12.747C21.838 11.8707 18.925 11.4461 16 11.489Z" fill="#007ACC"/>
<path d="M10.32 28.443C9.85348 28.4537 9.39248 28.3405 8.98398 28.115C7.55198 27.289 7.05598 24.907 7.65698 21.742C8.31962 18.7131 9.46778 15.8113 11.057 13.149C12.5477 10.4781 14.4562 8.06292 16.71 5.995C17.7031 5.08971 18.8488 4.36755 20.094 3.862C20.5443 3.65094 21.0356 3.54153 21.533 3.54153C22.0303 3.54153 22.5216 3.65094 22.972 3.862C24.461 4.72 24.954 7.348 24.259 10.721C23.5759 13.5856 22.4575 16.3284 20.943 18.854C19.5047 21.4934 17.6563 23.8875 15.467 25.947C14.4378 26.8878 13.2433 27.63 11.944 28.136C11.4238 28.3291 10.8747 28.4329 10.32 28.443ZM12.093 13.743C10.5771 16.2923 9.47664 19.0667 8.83298 21.962C8.27998 24.877 8.81098 26.63 9.58298 27.076C10.383 27.539 12.325 27.1 14.683 25.04C16.773 23.067 18.5372 20.7752 19.91 18.25C21.3609 15.8355 22.4337 13.2131 23.091 10.474C23.745 7.299 23.18 5.355 22.378 4.893C22.0774 4.77783 21.7562 4.72627 21.4346 4.74159C21.1131 4.75691 20.7983 4.83877 20.51 4.982C19.4017 5.43935 18.3827 6.08863 17.5 6.9C15.3466 8.88079 13.5237 11.1929 12.1 13.749L12.093 13.743Z" fill="#007ACC"/>
<path d="M21.677 28.456C20.322 28.456 18.601 27.636 16.809 26.095C14.5157 24.0083 12.575 21.5644 11.062 18.858C9.49278 16.2324 8.35371 13.3725 7.68805 10.387C7.39935 9.07348 7.34586 7.71918 7.53005 6.38699C7.57263 5.8928 7.72311 5.41397 7.97088 4.98426C8.21865 4.55455 8.55767 4.18443 8.96404 3.89999C10.451 3.03899 12.974 3.92399 15.549 6.20999C17.6896 8.23218 19.5074 10.5707 20.939 13.144C22.5073 15.7083 23.6583 18.5055 24.349 21.431C24.6502 22.7927 24.6966 24.1984 24.486 25.577C24.4359 26.0854 24.2765 26.577 24.0186 27.018C23.7607 27.459 23.4106 27.839 22.992 28.132C22.5902 28.3547 22.1364 28.4665 21.677 28.456ZM12.097 18.256C13.5485 20.8424 15.4023 23.1814 17.589 25.185C19.838 27.12 21.622 27.536 22.389 27.085C23.189 26.62 23.779 24.722 23.171 21.651C22.5049 18.8579 21.4009 16.1879 19.9 13.74C18.5339 11.2771 16.7988 9.03786 14.755 7.09999C12.331 4.94799 10.365 4.46699 9.56404 4.93099C9.31439 5.13388 9.10951 5.38632 8.96235 5.67238C8.81519 5.95844 8.72894 6.27191 8.70904 6.59299C8.55005 7.78108 8.60184 8.9879 8.86205 10.158C9.50235 13.0131 10.5948 15.7476 12.098 18.258L12.097 18.256Z" fill="#007ACC"/>
<path d="M87.38 23.11C87.22 23.11 87.0833 23.0533 86.97 22.94C86.8567 22.8267 86.8 22.6933 86.8 22.54C86.8 22.3867 86.8567 22.2533 86.97 22.14C87.0833 22.0267 87.22 21.97 87.38 21.97C87.5333 21.97 87.6667 22.0267 87.78 22.14C87.8933 22.2533 87.95 22.3867 87.95 22.54C87.95 22.6933 87.8933 22.8267 87.78 22.94C87.6667 23.0533 87.5333 23.11 87.38 23.11ZM91.94 24.74C91.6533 24.74 91.38 24.6867 91.12 24.58C90.8667 24.4733 90.6533 24.3133 90.48 24.1L90.88 23.56L90.94 23.48L91 23.52C91.0133 23.5733 91.03 23.6233 91.05 23.67C91.07 23.7233 91.1167 23.79 91.19 23.87C91.2833 23.9433 91.39 24.0033 91.51 24.05C91.6367 24.0967 91.7767 24.12 91.93 24.12C92.13 24.12 92.3067 24.0733 92.46 23.98C92.62 23.8933 92.7433 23.7533 92.83 23.56C92.9167 23.3733 92.96 23.1267 92.96 22.82V19.02H91.26V18.43H93.69V22.78C93.69 23.24 93.61 23.6133 93.45 23.9C93.29 24.1933 93.0767 24.4067 92.81 24.54C92.55 24.6733 92.26 24.74 91.94 24.74ZM93.27 17.47C93.13 17.47 93.01 17.42 92.91 17.32C92.81 17.22 92.76 17.1 92.76 16.96C92.76 16.8133 92.8067 16.69 92.9 16.59C93 16.49 93.1233 16.44 93.27 16.44C93.41 16.44 93.53 16.4933 93.63 16.6C93.7367 16.7 93.79 16.82 93.79 16.96C93.79 17.1 93.7367 17.22 93.63 17.32C93.53 17.42 93.41 17.47 93.27 17.47ZM97.51 23.1C97.2567 23.1 97.0133 23.0733 96.78 23.02C96.5533 22.9667 96.3367 22.8867 96.13 22.78C95.93 22.6733 95.7433 22.54 95.57 22.38L95.97 21.7L96.03 21.61L96.09 21.65C96.1033 21.7033 96.1167 21.76 96.13 21.82C96.15 21.8733 96.1967 21.94 96.27 22.02C96.41 22.16 96.5767 22.2767 96.77 22.37C96.97 22.4567 97.2233 22.5 97.53 22.5C97.7767 22.5 97.9833 22.47 98.15 22.41C98.3233 22.35 98.4567 22.2667 98.55 22.16C98.6433 22.0467 98.69 21.9167 98.69 21.77C98.69 21.67 98.67 21.5833 98.63 21.51C98.59 21.43 98.5233 21.3567 98.43 21.29C98.3433 21.2233 98.2267 21.1567 98.08 21.09C97.9333 21.0233 97.7533 20.9567 97.54 20.89C97.1933 20.79 96.89 20.6733 96.63 20.54C96.37 20.4067 96.17 20.2533 96.03 20.08C95.89 19.9 95.82 19.6967 95.82 19.47C95.82 19.2367 95.8833 19.0367 96.01 18.87C96.1367 18.6967 96.3233 18.5633 96.57 18.47C96.8233 18.37 97.1333 18.32 97.5 18.32C97.7133 18.32 97.9067 18.3367 98.08 18.37C98.2533 18.3967 98.4133 18.44 98.56 18.5C98.7067 18.56 98.84 18.6367 98.96 18.73C99.0867 18.8167 99.2067 18.92 99.32 19.04L98.91 19.54L98.84 19.62L98.79 19.57C98.7833 19.5167 98.7667 19.4667 98.74 19.42C98.72 19.3667 98.6733 19.3033 98.6 19.23C98.4467 19.11 98.2733 19.02 98.08 18.96C97.8867 18.8933 97.7 18.86 97.52 18.86C97.2533 18.86 97.0233 18.9067 96.83 19C96.6367 19.0933 96.54 19.2367 96.54 19.43C96.54 19.53 96.5733 19.63 96.64 19.73C96.7133 19.8233 96.8433 19.92 97.03 20.02C97.2167 20.1133 97.4833 20.21 97.83 20.31C98.21 20.43 98.5133 20.5533 98.74 20.68C98.9733 20.8 99.14 20.94 99.24 21.1C99.3467 21.26 99.4 21.45 99.4 21.67C99.4 21.9233 99.33 22.16 99.19 22.38C99.0567 22.6 98.85 22.7767 98.57 22.91C98.29 23.0367 97.9367 23.1 97.51 23.1Z" fill="#9A9A9A"/>
<path d="M39.2836 17.965V23H37.8206V9.852H42.6846C44.0779 9.852 45.1229 10.175 45.8196 10.821C46.5289 11.467 46.8836 12.474 46.8836 13.842C46.8836 15.8687 46.0792 17.1417 44.4706 17.661L46.9976 23H45.3826L43.0076 17.965H39.2836ZM42.7036 16.673C44.4896 16.673 45.3826 15.7547 45.3826 13.918C45.3826 12.0687 44.4832 11.144 42.6846 11.144H39.2836V16.673H42.7036ZM55.5746 21.822L56.1256 21.765L56.1636 22.886C54.7196 23.0887 53.4846 23.19 52.4586 23.19C51.0906 23.19 50.1216 22.7973 49.5516 22.012C48.9816 21.214 48.6966 19.979 48.6966 18.307C48.6966 14.9757 50.0202 13.31 52.6676 13.31C53.9469 13.31 54.9032 13.671 55.5366 14.393C56.1699 15.1023 56.4866 16.2233 56.4866 17.756L56.4106 18.839H50.1406C50.1406 19.8903 50.3306 20.6693 50.7106 21.176C51.0906 21.6827 51.7492 21.936 52.6866 21.936C53.6366 21.936 54.5992 21.898 55.5746 21.822ZM55.0616 17.699C55.0616 16.5337 54.8716 15.7103 54.4916 15.229C54.1242 14.7477 53.5162 14.507 52.6676 14.507C51.8316 14.507 51.1982 14.7603 50.7676 15.267C50.3496 15.7737 50.1342 16.5843 50.1216 17.699H55.0616ZM65.4144 16.369V21.233C65.4524 21.7017 65.8197 21.9803 66.5164 22.069L66.4594 23.19C65.4587 23.19 64.705 22.9367 64.1984 22.43C63.0584 22.9367 61.9184 23.19 60.7784 23.19C59.9044 23.19 59.2394 22.943 58.7834 22.449C58.3274 21.955 58.0994 21.2457 58.0994 20.321C58.0994 19.3963 58.3337 18.7187 58.8024 18.288C59.271 17.8447 60.0057 17.5723 61.0064 17.471L63.9894 17.186V16.369C63.9894 15.723 63.85 15.2607 63.5714 14.982C63.2927 14.7033 62.9127 14.564 62.4314 14.564C61.418 14.564 60.3667 14.6273 59.2774 14.754L58.6884 14.811L58.6314 13.728C60.0247 13.4493 61.2597 13.31 62.3364 13.31C63.413 13.31 64.192 13.557 64.6734 14.051C65.1674 14.545 65.4144 15.3177 65.4144 16.369ZM59.5624 20.245C59.5624 21.4103 60.0437 21.993 61.0064 21.993C61.8677 21.993 62.7164 21.8473 63.5524 21.556L63.9894 21.404V18.269L61.1774 18.535C60.6074 18.5857 60.1957 18.7503 59.9424 19.029C59.689 19.3077 59.5624 19.713 59.5624 20.245ZM71.7789 13.31C72.1969 13.31 72.9062 13.386 73.9069 13.538L74.3629 13.595L74.3059 14.754C73.2926 14.64 72.5452 14.583 72.0639 14.583C70.9872 14.583 70.2526 14.8427 69.8599 15.362C69.4799 15.8687 69.2899 16.8187 69.2899 18.212C69.2899 19.5927 69.4672 20.5553 69.8219 21.1C70.1892 21.6447 70.9429 21.917 72.0829 21.917L74.3249 21.746L74.3819 22.924C73.2039 23.1013 72.3236 23.19 71.7409 23.19C70.2589 23.19 69.2329 22.81 68.6629 22.05C68.1056 21.29 67.8269 20.0107 67.8269 18.212C67.8269 16.4007 68.1309 15.134 68.7389 14.412C69.3469 13.6773 70.3602 13.31 71.7789 13.31ZM81.4223 14.735H78.4013V19.276C78.4013 20.3653 78.4773 21.081 78.6293 21.423C78.794 21.765 79.174 21.936 79.7693 21.936L81.4603 21.822L81.5553 23C80.7066 23.1393 80.0606 23.209 79.6173 23.209C78.6293 23.209 77.9453 22.9683 77.5653 22.487C77.1853 22.0057 76.9953 21.0873 76.9953 19.732V14.735H75.6463V13.5H76.9953V10.593H78.4013V13.5H81.4223V14.735Z" fill="white"/>
</svg>
