<svg width="103" height="33" viewBox="0 0 103 33" fill="none" xmlns="http://www.w3.org/2000/svg">
<path d="M53.49 19.7V25H51.95V11.16H57.07C58.5367 11.16 59.6367 11.5 60.37 12.18C61.1167 12.86 61.49 13.92 61.49 15.36C61.49 17.4933 60.6433 18.8333 58.95 19.38L61.61 25H59.91L57.41 19.7H53.49ZM57.09 18.34C58.97 18.34 59.91 17.3733 59.91 15.44C59.91 13.4933 58.9633 12.52 57.07 12.52H53.49V18.34H57.09ZM70.6384 23.76L71.2184 23.7L71.2584 24.88C69.7384 25.0933 68.4384 25.2 67.3584 25.2C65.9184 25.2 64.8984 24.7867 64.2984 23.96C63.6984 23.12 63.3984 21.82 63.3984 20.06C63.3984 16.5533 64.7918 14.8 67.5784 14.8C68.9251 14.8 69.9318 15.18 70.5984 15.94C71.2651 16.6867 71.5984 17.8667 71.5984 19.48L71.5184 20.62H64.9184C64.9184 21.7267 65.1184 22.5467 65.5184 23.08C65.9184 23.6133 66.6118 23.88 67.5984 23.88C68.5984 23.88 69.6118 23.84 70.6384 23.76ZM70.0984 19.42C70.0984 18.1933 69.8984 17.3267 69.4984 16.82C69.1118 16.3133 68.4718 16.06 67.5784 16.06C66.6984 16.06 66.0318 16.3267 65.5784 16.86C65.1384 17.3933 64.9118 18.2467 64.8984 19.42H70.0984ZM81.6161 10.64V25H80.1361V24.32C79.1094 24.9067 78.0961 25.2 77.0961 25.2C76.5628 25.2 76.0961 25.1333 75.6961 25C75.2961 24.8667 74.9228 24.6267 74.5761 24.28C73.8561 23.56 73.4961 22.2333 73.4961 20.3C73.4961 18.3533 73.8161 16.9533 74.4561 16.1C75.1094 15.2333 76.1828 14.8 77.6761 14.8C78.4494 14.8 79.2694 14.8867 80.1361 15.06V10.64H81.6161ZM75.7361 23.2C75.9494 23.4533 76.1761 23.6267 76.4161 23.72C76.6561 23.8133 76.9628 23.86 77.3361 23.86C77.7228 23.86 78.1494 23.8 78.6161 23.68C79.0961 23.5467 79.4694 23.42 79.7361 23.3L80.1361 23.12V16.34C79.2828 16.18 78.4894 16.1 77.7561 16.1C76.7428 16.1 76.0361 16.4267 75.6361 17.08C75.2361 17.72 75.0361 18.72 75.0361 20.08C75.0361 21.6267 75.2694 22.6667 75.7361 23.2ZM90.762 15H92.262V25H90.762V24.3C89.762 24.9 88.7754 25.2 87.802 25.2C86.442 25.2 85.5354 24.8467 85.082 24.14C84.642 23.4333 84.422 22.1267 84.422 20.22V15H85.922V20.2C85.922 21.6533 86.0487 22.6267 86.302 23.12C86.5554 23.6133 87.1287 23.86 88.022 23.86C88.462 23.86 88.9087 23.8 89.362 23.68C89.8154 23.5467 90.162 23.42 90.402 23.3L90.762 23.12V15ZM94.147 15H95.787L98.227 18.92L100.667 15H102.307L99.127 19.96L102.287 25H100.647L98.227 21.1L95.787 25H94.147L97.287 20L94.147 15Z" fill="white"/>
<g clip-path="url(#clip0_31_345)">
<path d="M23.5584 21.9666C24.8131 21.8444 25.765 20.8264 25.7217 19.6046C25.6785 18.383 24.5967 17.4056 23.2988 17.4056H23.2123C21.8709 17.4464 20.8326 18.5051 20.8759 19.7675C20.9192 20.3784 21.1787 20.9078 21.5681 21.2743C20.0971 24.0028 17.8472 25.9981 14.4724 27.6678C12.1793 28.808 9.7997 29.2153 7.4201 28.9303C5.47307 28.6859 3.95874 27.8715 3.00674 26.5275C1.6223 24.5321 1.49255 22.3738 2.66076 20.2155C3.48287 18.668 4.78072 17.5278 5.60283 16.9576C5.42977 16.4283 5.17012 15.5324 5.04037 14.8809C-1.2333 19.1568 -0.584244 24.9394 1.31949 27.6678C2.74723 29.704 5.64612 30.9664 8.84784 30.9664C9.71311 30.9664 10.5784 30.8849 11.4438 30.6814C16.9819 29.6633 21.1788 26.5683 23.5584 21.9666ZM31.1734 16.917C27.885 13.2926 23.0392 11.2973 17.5011 11.2973H16.8089C16.4195 10.5643 15.5974 10.0755 14.6888 10.0755H14.6022C13.2611 10.1163 12.2227 11.175 12.2659 12.4375C12.3092 13.6591 13.3908 14.6365 14.6888 14.6365H14.7753C15.7271 14.5958 16.5492 14.0256 16.8953 13.2519H17.6742C20.9625 13.2519 24.0776 14.1478 26.89 15.8989C29.0533 17.2428 30.6109 18.9939 31.4762 21.1114C32.2117 22.8218 32.1684 24.4914 31.3896 25.9168C30.1782 28.075 28.1447 29.256 25.4621 29.256C23.7315 29.256 22.0874 28.7673 21.222 28.4008C20.7461 28.808 19.8807 29.4595 19.2749 29.8669C21.1355 30.6813 23.0393 31.1293 24.8564 31.1293C29.01 31.1293 32.0819 28.9709 33.2501 26.8126C34.5048 24.4506 34.4182 20.3784 31.1734 16.917ZM9.19394 22.6588C9.23724 23.8805 10.3189 24.8578 11.6168 24.8578H11.7034C13.0447 24.8171 14.083 23.7583 14.0397 22.4959C13.9966 21.2741 12.9148 20.2969 11.6168 20.2969H11.5304C11.4438 20.2969 11.3139 20.2969 11.2276 20.3375C9.45359 17.5684 8.71808 14.555 8.97773 11.2971C9.15065 8.85375 10.0161 6.73613 11.5304 4.985C12.7851 3.47825 15.208 2.74525 16.8522 2.70463C21.4383 2.62313 23.3852 7.9985 23.5151 10.1569C24.0776 10.279 25.0294 10.5641 25.6785 10.7678C25.1592 4.17075 20.8326 0.75 16.6791 0.75C12.7851 0.75 9.19394 3.397 7.76608 7.30638C5.77588 12.5189 7.07386 17.5278 9.49676 21.4779C9.28054 21.7629 9.15065 22.2108 9.19394 22.6588Z" fill="#764ABC"/>
</g>
<defs>
<clipPath id="clip0_31_345">
<rect width="34" height="32" fill="white"/>
</clipPath>
</defs>
</svg>
