<svg width="117" height="36" viewBox="0 0 117 36" fill="none" xmlns="http://www.w3.org/2000/svg">
<g clip-path="url(#clip0_31_378)">
<path d="M13.9396 1.03809C18.6032 -0.125579 23.7575 0.552514 27.8704 3.02231C33.0504 6.03633 36.4322 11.7377 36.5182 17.6065C36.7075 23.5339 33.5323 29.4112 28.4298 32.6344C22.7507 36.3516 14.8947 36.494 9.0951 32.9609C3.18377 29.5283 -0.266772 22.6046 0.619638 15.9571C1.33362 8.93292 6.90964 2.73755 13.9396 1.03809Z" fill="#010101"/>
<path d="M13.2254 3.90981C22.0366 0.47715 32.8441 6.81484 33.756 16.0075C35.1759 24.2791 28.12 32.6846 19.5067 32.9275C11.3151 33.7229 3.39885 26.9664 3.16659 18.9629C2.55565 12.4829 6.94405 6.05307 13.2254 3.90981Z" fill="white"/>
<path d="M14.1115 17.1127C18.0611 13.9731 21.9246 10.7246 25.9602 7.67715C23.8434 10.8419 21.6665 13.9646 19.5497 17.1293C17.7341 17.1377 15.9186 17.1378 14.1115 17.1127ZM17.4502 18.8623C19.2743 18.8623 21.0899 18.8623 22.9055 18.8875C18.9302 22.0102 15.0839 25.2837 11.0397 28.3229C13.1565 25.1581 15.3334 22.0271 17.4502 18.8623Z" fill="#010101"/>
</g>
<path d="M46.9804 16.14C45.5271 16.14 44.8004 16.6467 44.8004 17.66C44.8004 18.1267 44.9671 18.46 45.3004 18.66C45.6337 18.8467 46.3937 19.0467 47.5804 19.26C48.7671 19.46 49.6071 19.7467 50.1004 20.12C50.5937 20.4933 50.8404 21.1933 50.8404 22.22C50.8404 23.2467 50.5071 24 49.8404 24.48C49.1871 24.96 48.2271 25.2 46.9604 25.2C46.1337 25.2 45.1604 25.1067 44.0404 24.92L43.4404 24.82L43.5204 23.52C45.0404 23.7467 46.1871 23.86 46.9604 23.86C47.7337 23.86 48.3204 23.74 48.7204 23.5C49.1337 23.2467 49.3404 22.8333 49.3404 22.26C49.3404 21.6733 49.1671 21.28 48.8204 21.08C48.4737 20.8667 47.7137 20.6667 46.5404 20.48C45.3671 20.2933 44.5337 20.02 44.0404 19.66C43.5471 19.3 43.3004 18.6333 43.3004 17.66C43.3004 16.6867 43.6404 15.9667 44.3204 15.5C45.0137 15.0333 45.8737 14.8 46.9004 14.8C47.7137 14.8 48.7337 14.8933 49.9604 15.08L50.5204 15.18L50.4804 16.46C49.0004 16.2467 47.8337 16.14 46.9804 16.14ZM52.6973 19.98C52.6973 18.1533 53.0239 16.8333 53.6773 16.02C54.3306 15.2067 55.4306 14.8 56.9773 14.8C58.5373 14.8 59.6373 15.2067 60.2773 16.02C60.9306 16.8333 61.2573 18.1533 61.2573 19.98C61.2573 21.8067 60.9506 23.1333 60.3373 23.96C59.7239 24.7867 58.6039 25.2 56.9773 25.2C55.3506 25.2 54.2306 24.7867 53.6173 23.96C53.0039 23.1333 52.6973 21.8067 52.6973 19.98ZM54.2373 19.96C54.2373 21.4133 54.4106 22.4333 54.7573 23.02C55.1173 23.6067 55.8573 23.9 56.9773 23.9C58.1106 23.9 58.8506 23.6133 59.1973 23.04C59.5439 22.4533 59.7173 21.4267 59.7173 19.96C59.7173 18.4933 59.5239 17.4867 59.1373 16.94C58.7506 16.38 58.0306 16.1 56.9773 16.1C55.9373 16.1 55.2173 16.38 54.8173 16.94C54.4306 17.4867 54.2373 18.4933 54.2373 19.96ZM67.4437 14.8C67.8837 14.8 68.6303 14.88 69.6837 15.04L70.1637 15.1L70.1037 16.32C69.037 16.2 68.2503 16.14 67.7437 16.14C66.6103 16.14 65.837 16.4133 65.4237 16.96C65.0237 17.4933 64.8237 18.4933 64.8237 19.96C64.8237 21.4133 65.0103 22.4267 65.3837 23C65.7703 23.5733 66.5637 23.86 67.7637 23.86L70.1237 23.68L70.1837 24.92C68.9437 25.1067 68.017 25.2 67.4037 25.2C65.8437 25.2 64.7637 24.8 64.1637 24C63.577 23.2 63.2837 21.8533 63.2837 19.96C63.2837 18.0533 63.6037 16.72 64.2437 15.96C64.8837 15.1867 65.9503 14.8 67.4437 14.8ZM73.9146 25H72.4146V10.64H73.9146V19.12L75.4746 19.04L78.3346 15H80.0346L76.7746 19.6L80.1746 25H78.4746L75.4946 20.36L73.9146 20.42V25ZM88.531 23.76L89.111 23.7L89.151 24.88C87.631 25.0933 86.331 25.2 85.251 25.2C83.811 25.2 82.791 24.7867 82.191 23.96C81.591 23.12 81.291 21.82 81.291 20.06C81.291 16.5533 82.6843 14.8 85.471 14.8C86.8177 14.8 87.8243 15.18 88.491 15.94C89.1577 16.6867 89.491 17.8667 89.491 19.48L89.411 20.62H82.811C82.811 21.7267 83.011 22.5467 83.411 23.08C83.811 23.6133 84.5043 23.88 85.491 23.88C86.491 23.88 87.5043 23.84 88.531 23.76ZM87.991 19.42C87.991 18.1933 87.791 17.3267 87.391 16.82C87.0043 16.3133 86.3643 16.06 85.471 16.06C84.591 16.06 83.9243 16.3267 83.471 16.86C83.031 17.3933 82.8043 18.2467 82.791 19.42H87.991ZM96.9501 16.3H93.7701V21.08C93.7701 22.2267 93.8501 22.98 94.0101 23.34C94.1834 23.7 94.5834 23.88 95.2101 23.88L96.9901 23.76L97.0901 25C96.1967 25.1467 95.5167 25.22 95.0501 25.22C94.0101 25.22 93.2901 24.9667 92.8901 24.46C92.4901 23.9533 92.2901 22.9867 92.2901 21.56V16.3H90.8701V15H92.2901V11.94H93.7701V15H96.9501V16.3ZM98.6818 25V22.72H100.322V25H98.6818ZM103.098 25V15H104.598V25H103.098ZM103.098 12.74V11H104.598V12.74H103.098ZM107.033 19.98C107.033 18.1533 107.36 16.8333 108.013 16.02C108.667 15.2067 109.767 14.8 111.313 14.8C112.873 14.8 113.973 15.2067 114.613 16.02C115.267 16.8333 115.593 18.1533 115.593 19.98C115.593 21.8067 115.287 23.1333 114.673 23.96C114.06 24.7867 112.94 25.2 111.313 25.2C109.687 25.2 108.567 24.7867 107.953 23.96C107.34 23.1333 107.033 21.8067 107.033 19.98ZM108.573 19.96C108.573 21.4133 108.747 22.4333 109.093 23.02C109.453 23.6067 110.193 23.9 111.313 23.9C112.447 23.9 113.187 23.6133 113.533 23.04C113.88 22.4533 114.053 21.4267 114.053 19.96C114.053 18.4933 113.86 17.4867 113.473 16.94C113.087 16.38 112.367 16.1 111.313 16.1C110.273 16.1 109.553 16.38 109.153 16.94C108.767 17.4867 108.573 18.4933 108.573 19.96Z" fill="white"/>
<defs>
<clipPath id="clip0_31_378">
<rect width="37" height="36" fill="white"/>
</clipPath>
</defs>
</svg>
