<svg width="109" height="30" viewBox="0 0 109 30" fill="none" xmlns="http://www.w3.org/2000/svg">
<path d="M17.5111 4.00705C11.2126 4.20724 9.34062 8.70655 8.91162 11.1441C9.47061 10.2405 11.2321 8.25809 13.8256 8.25809C16.8481 8.25809 19.1491 11.6316 20.5531 12.6846C22.2589 13.9639 25.6864 15.6531 30.1861 14.2836C33.7741 13.1916 35.4381 9.38254 35.8021 7.57555C34.0666 9.93505 31.4341 11.3523 28.1776 9.68155C25.9351 8.53105 24.2581 3.79259 17.5111 4.00705Z" fill="#07B6D5"/>
<path d="M8.5995 14.7126C2.301 14.9127 0.429 19.4121 0 21.8496C0.558999 20.946 2.3205 18.9636 4.914 18.9636C7.9365 18.9636 10.2375 22.3371 11.6415 23.3901C13.3472 24.6694 16.7748 26.3586 21.2745 24.9891C24.8625 23.8971 26.5265 20.088 26.8905 18.2811C25.155 20.6406 22.5225 22.0578 19.266 20.3871C17.0235 19.2366 15.3465 14.4981 8.5995 14.7126Z" fill="#07B6D5"/>
<path d="M48.0541 13.3H44.8741V18.08C44.8741 19.2267 44.9541 19.98 45.1141 20.34C45.2874 20.7 45.6874 20.88 46.3141 20.88L48.0941 20.76L48.1941 22C47.3007 22.1467 46.6207 22.22 46.1541 22.22C45.1141 22.22 44.3941 21.9667 43.9941 21.46C43.5941 20.9533 43.3941 19.9867 43.3941 18.56V13.3H41.9741V12H43.3941V8.94H44.8741V12H48.0541V13.3ZM56.9458 15.02V20.14C56.9858 20.6333 57.3725 20.9267 58.1058 21.02L58.0458 22.2C56.9925 22.2 56.1991 21.9333 55.6658 21.4C54.4658 21.9333 53.2658 22.2 52.0658 22.2C51.1458 22.2 50.4458 21.94 49.9658 21.42C49.4858 20.9 49.2458 20.1533 49.2458 19.18C49.2458 18.2067 49.4925 17.4933 49.9858 17.04C50.4791 16.5733 51.2525 16.2867 52.3058 16.18L55.4458 15.88V15.02C55.4458 14.34 55.2991 13.8533 55.0058 13.56C54.7125 13.2667 54.3125 13.12 53.8058 13.12C52.7391 13.12 51.6325 13.1867 50.4858 13.32L49.8658 13.38L49.8058 12.24C51.2725 11.9467 52.5725 11.8 53.7058 11.8C54.8391 11.8 55.6591 12.06 56.1658 12.58C56.6858 13.1 56.9458 13.9133 56.9458 15.02ZM50.7858 19.1C50.7858 20.3267 51.2925 20.94 52.3058 20.94C53.2125 20.94 54.1058 20.7867 54.9858 20.48L55.4458 20.32V17.02L52.4858 17.3C51.8858 17.3533 51.4525 17.5267 51.1858 17.82C50.9191 18.1133 50.7858 18.54 50.7858 19.1ZM59.9053 22V12H61.4053V22H59.9053ZM59.9053 9.74V8H61.4053V9.74H59.9053ZM64.4003 22V7.64H65.9003V22H64.4003ZM68.0892 12H69.5892L71.6092 20.7H71.9292L74.3092 12.2H75.8692L78.2492 20.7H78.5892L80.5892 12H82.0892L79.7092 22H77.2092L75.0892 14.18L72.9692 22H70.4692L68.0892 12ZM84.1436 22V12H85.6436V22H84.1436ZM84.1436 9.74V8H85.6436V9.74H84.1436ZM90.0186 22H88.5186V12H89.9986V12.7C91.0786 12.1 92.1119 11.8 93.0986 11.8C94.4319 11.8 95.3253 12.16 95.7786 12.88C96.2453 13.6 96.4786 14.88 96.4786 16.72V22H94.9986V16.76C94.9986 15.3733 94.8586 14.4267 94.5786 13.92C94.3119 13.4 93.7319 13.14 92.8386 13.14C92.4119 13.14 91.9586 13.2067 91.4786 13.34C91.0119 13.46 90.6519 13.58 90.3986 13.7L90.0186 13.88V22ZM106.941 7.64V22H105.461V21.32C104.434 21.9067 103.421 22.2 102.421 22.2C101.887 22.2 101.421 22.1333 101.021 22C100.621 21.8667 100.247 21.6267 99.9008 21.28C99.1808 20.56 98.8208 19.2333 98.8208 17.3C98.8208 15.3533 99.1408 13.9533 99.7808 13.1C100.434 12.2333 101.507 11.8 103.001 11.8C103.774 11.8 104.594 11.8867 105.461 12.06V7.64H106.941ZM101.061 20.2C101.274 20.4533 101.501 20.6267 101.741 20.72C101.981 20.8133 102.287 20.86 102.661 20.86C103.047 20.86 103.474 20.8 103.941 20.68C104.421 20.5467 104.794 20.42 105.061 20.3L105.461 20.12V13.34C104.607 13.18 103.814 13.1 103.081 13.1C102.067 13.1 101.361 13.4267 100.961 14.08C100.561 14.72 100.361 15.72 100.361 17.08C100.361 18.6267 100.594 19.6667 101.061 20.2Z" fill="white"/>
</svg>
