<svg width="120" height="29" viewBox="0 0 120 29" fill="none" xmlns="http://www.w3.org/2000/svg">
<path d="M38.269 10.163V8.852H47.769V10.163H43.76V22H42.316V10.163H38.269ZM47.1991 12.5H48.6241L50.9991 20.765H51.6261L54.0201 12.5H55.4451L51.4931 26.218H50.0681L51.3031 22H49.8971L47.1991 12.5ZM57.2767 26.218V12.5H58.6827V13.184C59.6454 12.6013 60.5954 12.31 61.5327 12.31C62.736 12.31 63.61 12.6963 64.1547 13.469C64.6994 14.229 64.9717 15.4893 64.9717 17.25C64.9717 19.0107 64.6487 20.2773 64.0027 21.05C63.3694 21.81 62.3117 22.19 60.8297 22.19C60.057 22.19 59.3477 22.1203 58.7017 21.981V26.218H57.2767ZM61.3237 13.583C60.9437 13.583 60.532 13.6463 60.0887 13.773C59.658 13.8997 59.316 14.0263 59.0627 14.153L58.7017 14.343V20.746C59.601 20.8853 60.285 20.955 60.7537 20.955C61.7797 20.955 62.4954 20.6637 62.9007 20.081C63.3187 19.4983 63.5277 18.5483 63.5277 17.231C63.5277 15.9137 63.3377 14.9763 62.9577 14.419C62.5904 13.8617 62.0457 13.583 61.3237 13.583ZM73.7562 20.822L74.3072 20.765L74.3452 21.886C72.9012 22.0887 71.6662 22.19 70.6402 22.19C69.2722 22.19 68.3032 21.7973 67.7332 21.012C67.1632 20.214 66.8782 18.979 66.8782 17.307C66.8782 13.9757 68.2019 12.31 70.8492 12.31C72.1286 12.31 73.0849 12.671 73.7182 13.393C74.3516 14.1023 74.6682 15.2233 74.6682 16.756L74.5922 17.839H68.3222C68.3222 18.8903 68.5122 19.6693 68.8922 20.176C69.2722 20.6827 69.9309 20.936 70.8682 20.936C71.8182 20.936 72.7809 20.898 73.7562 20.822ZM73.2432 16.699C73.2432 15.5337 73.0532 14.7103 72.6732 14.229C72.3059 13.7477 71.6979 13.507 70.8492 13.507C70.0132 13.507 69.3799 13.7603 68.9492 14.267C68.5312 14.7737 68.3159 15.5843 68.3032 16.699H73.2432ZM79.872 13.583C78.4913 13.583 77.801 14.0643 77.801 15.027C77.801 15.4703 77.9593 15.787 78.276 15.977C78.5927 16.1543 79.3147 16.3443 80.442 16.547C81.5693 16.737 82.3673 17.0093 82.836 17.364C83.3047 17.7187 83.539 18.3837 83.539 19.359C83.539 20.3343 83.2223 21.05 82.589 21.506C81.9683 21.962 81.0563 22.19 79.853 22.19C79.0677 22.19 78.143 22.1013 77.079 21.924L76.509 21.829L76.585 20.594C78.029 20.8093 79.1183 20.917 79.853 20.917C80.5877 20.917 81.145 20.803 81.525 20.575C81.9177 20.3343 82.114 19.9417 82.114 19.397C82.114 18.8397 81.9493 18.466 81.62 18.276C81.2907 18.0733 80.5687 17.8833 79.454 17.706C78.3393 17.5287 77.5477 17.269 77.079 16.927C76.6103 16.585 76.376 15.9517 76.376 15.027C76.376 14.1023 76.699 13.4183 77.345 12.975C78.0037 12.5317 78.8207 12.31 79.796 12.31C80.5687 12.31 81.5377 12.3987 82.703 12.576L83.235 12.671L83.197 13.887C81.791 13.6843 80.6827 13.583 79.872 13.583ZM89.274 12.31C89.692 12.31 90.4014 12.386 91.402 12.538L91.858 12.595L91.801 13.754C90.7877 13.64 90.0404 13.583 89.559 13.583C88.4824 13.583 87.7477 13.8427 87.355 14.362C86.975 14.8687 86.785 15.8187 86.785 17.212C86.785 18.5927 86.9624 19.5553 87.317 20.1C87.6844 20.6447 88.438 20.917 89.578 20.917L91.82 20.746L91.877 21.924C90.699 22.1013 89.8187 22.19 89.236 22.19C87.754 22.19 86.728 21.81 86.158 21.05C85.6007 20.29 85.322 19.0107 85.322 17.212C85.322 15.4007 85.626 14.134 86.234 13.412C86.842 12.6773 87.8554 12.31 89.274 12.31ZM93.9964 22V12.5H95.4024V13.792C96.5044 13.032 97.6634 12.5317 98.8794 12.291V13.735C98.3474 13.8363 97.7901 13.9947 97.2074 14.21C96.6374 14.4253 96.2004 14.6153 95.8964 14.78L95.4214 15.027V22H93.9964ZM100.565 22V12.5H101.99V22H100.565ZM100.565 10.353V8.7H101.99V10.353H100.565ZM104.721 26.218V12.5H106.127V13.184C107.09 12.6013 108.04 12.31 108.977 12.31C110.18 12.31 111.054 12.6963 111.599 13.469C112.144 14.229 112.416 15.4893 112.416 17.25C112.416 19.0107 112.093 20.2773 111.447 21.05C110.814 21.81 109.756 22.19 108.274 22.19C107.501 22.19 106.792 22.1203 106.146 21.981V26.218H104.721ZM108.768 13.583C108.388 13.583 107.976 13.6463 107.533 13.773C107.102 13.8997 106.76 14.0263 106.507 14.153L106.146 14.343V20.746C107.045 20.8853 107.729 20.955 108.198 20.955C109.224 20.955 109.94 20.6637 110.345 20.081C110.763 19.4983 110.972 18.5483 110.972 17.231C110.972 15.9137 110.782 14.9763 110.402 14.419C110.035 13.8617 109.49 13.583 108.768 13.583ZM119.606 13.735H116.585V18.276C116.585 19.3653 116.661 20.081 116.813 20.423C116.978 20.765 117.358 20.936 117.953 20.936L119.644 20.822L119.739 22C118.89 22.1393 118.244 22.209 117.801 22.209C116.813 22.209 116.129 21.9683 115.749 21.487C115.369 21.0057 115.179 20.0873 115.179 18.732V13.735H113.83V12.5H115.179V9.593H116.585V12.5H119.606V13.735Z" fill="white"/>
<g clip-path="url(#clip0_31_349)">
<path d="M25.2656 1H2.73438C1.22422 1 0 2.22422 0 3.73438V26.2656C0 27.7758 1.22422 29 2.73438 29H25.2656C26.7758 29 28 27.7758 28 26.2656V3.73438C28 2.22422 26.7758 1 25.2656 1Z" fill="#3178C6"/>
<path d="M25.2656 1H2.73438C1.22422 1 0 2.22422 0 3.73438V26.2656C0 27.7758 1.22422 29 2.73438 29H25.2656C26.7758 29 28 27.7758 28 26.2656V3.73438C28 2.22422 26.7758 1 25.2656 1Z" fill="#3178C6"/>
<path fill-rule="evenodd" clip-rule="evenodd" d="M17.3326 23.281V26.0187C17.7776 26.2469 18.304 26.4179 18.9117 26.532C19.5194 26.6461 20.1598 26.7031 20.8331 26.7031C21.4893 26.7031 22.1127 26.6404 22.7032 26.5149C23.2938 26.3894 23.8116 26.1827 24.2567 25.8946C24.7017 25.6066 25.0541 25.2302 25.3137 24.7653C25.5733 24.3005 25.7031 23.7259 25.7031 23.0415C25.7031 22.5452 25.629 22.1104 25.4806 21.7368C25.3322 21.3632 25.1183 21.031 24.8387 20.7401C24.5591 20.4492 24.2239 20.1883 23.833 19.9573C23.4422 19.7263 23.0014 19.5081 22.5107 19.3028C22.1512 19.1545 21.8288 19.0105 21.5435 18.8708C21.2582 18.731 21.0157 18.5884 20.816 18.443C20.6163 18.2975 20.4623 18.1435 20.3539 17.981C20.2455 17.8184 20.1912 17.6345 20.1912 17.4292C20.1912 17.241 20.2397 17.0713 20.3368 16.9201C20.4338 16.769 20.5707 16.6393 20.7476 16.5309C20.9245 16.4225 21.1413 16.3384 21.398 16.2785C21.6548 16.2186 21.9401 16.1887 22.2539 16.1887C22.4821 16.1887 22.7232 16.2058 22.9771 16.24C23.231 16.2742 23.4864 16.327 23.7432 16.3982C23.9999 16.4696 24.2495 16.5594 24.4921 16.6678C24.7346 16.7761 24.9585 16.9016 25.1639 17.0442V14.4862C24.7474 14.3265 24.2924 14.2081 23.7988 14.1311C23.3052 14.0541 22.7389 14.0156 22.0999 14.0156C21.4494 14.0156 20.8331 14.0855 20.2512 14.2252C19.6692 14.365 19.1571 14.5831 18.7148 14.8797C18.2726 15.1763 17.9232 15.5541 17.6664 16.0133C17.4097 16.4724 17.2812 17.0214 17.2812 17.6602C17.2812 18.4758 17.5166 19.1716 17.9874 19.7477C18.4581 20.3237 19.1727 20.8114 20.1313 21.2106C20.5079 21.3646 20.8589 21.5157 21.1841 21.6641C21.5093 21.8124 21.7903 21.9664 22.0271 22.1261C22.2639 22.2857 22.4507 22.4597 22.5877 22.6479C22.7247 22.8361 22.7931 23.05 22.7931 23.2896C22.7931 23.4664 22.7503 23.6303 22.6647 23.7815C22.5792 23.9327 22.4493 24.0638 22.2753 24.175C22.1013 24.2863 21.8845 24.3732 21.6249 24.4359C21.3652 24.4987 21.0614 24.5301 20.7133 24.5301C20.1199 24.5301 19.5322 24.426 18.9502 24.2178C18.3682 24.0097 17.829 23.6974 17.3326 23.281ZM12.7302 16.5357H16.2422V14.2891H6.45312V16.5357H9.94798V26.5391H12.7302V16.5357Z" fill="white"/>
</g>
<defs>
<clipPath id="clip0_31_349">
<rect width="28" height="28" fill="white" transform="translate(0 1)"/>
</clipPath>
</defs>
</svg>
